<?xml version="1.0" encoding="utf-8"?>
<!-- Generator: Adobe Illustrator 18.1.1, SVG Export Plug-In . SVG Version: 6.00 Build 0)  -->
<!DOCTYPE svg PUBLIC "-//W3C//DTD SVG 1.1//EN" "http://www.w3.org/Graphics/SVG/1.1/DTD/svg11.dtd">
<svg version="1.1" id="Layer_1" xmlns="http://www.w3.org/2000/svg" xmlns:xlink="http://www.w3.org/1999/xlink" x="0px" y="0px"
	 viewBox="0 0 50 50" enable-background="new 0 0 50 =50" xml:space="preserve">
<polyline fill="none" stroke="#231F20" stroke-width="1" stroke-linecap="round" stroke-linejoin="round" stroke-miterlimit="10" points="
	5,26 5,9 11,4 28,4 34,9 34,27 "/>
<polyline fill="none" stroke="#231F20" stroke-width="1" stroke-linecap="round" stroke-linejoin="round" stroke-miterlimit="10" points="
	35,12 37,12 39,29 39,20 37,22 35,22 "/>
<polyline fill="none" stroke="#231F20" stroke-width="1" stroke-linecap="round" stroke-linejoin="round" stroke-miterlimit="10" points="
	5,12 3,12 1,14 1,20 3,22 5,22 "/>
<polygon fill="#FFFFFF" stroke="#231F20" stroke-width="1" stroke-linecap="round" stroke-linejoin="round" stroke-miterlimit="10" points="
	29,16 29,20 25,23 25,34 23,36 16,36 15,34 15,23 11,20 11,12 18,10 "/>
<line fill="none" stroke="#231F20" stroke-width="1" stroke-linecap="round" stroke-linejoin="round" stroke-miterlimit="10" x1="24" y1="17" x2="24" y2="18"/>
<line fill="none" stroke="#231F20" stroke-width="1" stroke-linecap="round" stroke-linejoin="round" stroke-miterlimit="10" x1="15" y1="13" x2="15" y2="15"/>
<line fill="none" stroke="#231F20" stroke-width="1" stroke-linecap="round" stroke-linejoin="round" stroke-miterlimit="10" x1="19" y1="20" x2="18" y2="21"/>
<line fill="none" stroke="#231F20" stroke-width="1" stroke-linecap="round" stroke-linejoin="round" stroke-miterlimit="10" x1="21" y1="20" x2="21" y2="21"/>
<line fill="none" stroke="#231F20" stroke-width="1" stroke-linecap="round" stroke-linejoin="round" stroke-miterlimit="10" x1="17" y1="24" x2="17" y2="25"/>
<line fill="none" stroke="#231F20" stroke-width="1" stroke-linecap="round" stroke-linejoin="round" stroke-miterlimit="10" x1="22" y1="24" x2="22" y2="27"/>
<line fill="none" stroke="#231F20" stroke-width="1" stroke-linecap="round" stroke-linejoin="round" stroke-miterlimit="10" x1="17" y1="28" x2="17" y2="32"/>
<line fill="none" stroke="#231F20" stroke-width="1" stroke-linecap="round" stroke-linejoin="round" stroke-miterlimit="10" x1="17" y1="24" x2="20" y2="25"/>
<line fill="none" stroke="#231F20" stroke-width="1" stroke-linecap="round" stroke-linejoin="round" stroke-miterlimit="10" x1="20" y1="25" x2="22" y2="25"/>
<polyline fill="none" stroke="#231F20" stroke-width="1" stroke-linecap="round" stroke-linejoin="round" stroke-miterlimit="10" points="
	17,32 20,22 22,31 22,31 "/>
</svg>
